<?xml version="1.0" encoding="UTF-8" standalone="no"?>
<!DOCTYPE svg PUBLIC "-//W3C//DTD SVG 1.1//EN" "http://www.w3.org/Graphics/SVG/1.1/DTD/svg11.dtd">
<svg version="1.1" xmlns="http://www.w3.org/2000/svg" xmlns:xlink="http://www.w3.org/1999/xlink" preserveAspectRatio="xMidYMid meet" viewBox="0 0 640 640" width="640" height="640"><defs><path d="M53.33 71.11C23.89 71.11 0 95 0 124.44C0 163.56 0 476.44 0 515.56C0 545 23.89 568.89 53.33 568.89C106.67 568.89 533.33 568.89 586.67 568.89C616.11 568.89 640 545 640 515.56C640 476.44 640 163.56 640 124.44C640 95 616.11 71.11 586.67 71.11C480 71.11 106.67 71.11 53.33 71.11ZM266.67 248.89C266.67 288.11 234.78 320 195.56 320C156.33 320 124.44 288.11 124.44 248.89C124.44 209.67 156.33 177.78 195.56 177.78C234.78 177.78 266.67 209.67 266.67 248.89ZM295.11 462.22C275.2 462.22 115.91 462.22 96 462.22C82.22 462.22 71.11 452.67 71.11 440.89C71.11 438.76 71.11 421.69 71.11 419.56C71.11 384.22 104.56 355.56 145.78 355.56C146.33 355.56 150.78 355.56 151.33 355.56C165 361.22 179.89 364.44 195.56 364.44C211.22 364.44 226.22 361.22 239.78 355.56C240.33 355.56 244.78 355.56 245.33 355.56C286.56 355.56 320 384.22 320 419.56C320 420.98 320 428.09 320 440.89C312.59 455.11 304.3 462.22 295.11 462.22ZM560 391.11C544 391.11 416 391.11 400 391.11C395.11 391.11 391.11 387.11 391.11 382.22C391.11 380.44 391.11 366.22 391.11 364.44C391.11 359.56 395.11 355.56 400 355.56C416 355.56 544 355.56 560 355.56C564.89 355.56 568.89 359.56 568.89 364.44C568.89 365.63 568.89 371.56 568.89 382.22C566.22 388.15 563.26 391.11 560 391.11ZM560 320C544 320 416 320 400 320C395.11 320 391.11 316 391.11 311.11C391.11 309.33 391.11 295.11 391.11 293.33C391.11 288.44 395.11 284.44 400 284.44C416 284.44 544 284.44 560 284.44C564.89 284.44 568.89 288.44 568.89 293.33C568.89 294.52 568.89 300.44 568.89 311.11C566.22 317.04 563.26 320 560 320ZM560 248.89C544 248.89 416 248.89 400 248.89C395.11 248.89 391.11 244.89 391.11 240C391.11 238.22 391.11 224 391.11 222.22C391.11 217.33 395.11 213.33 400 213.33C416 213.33 544 213.33 560 213.33C564.89 213.33 568.89 217.33 568.89 222.22C568.89 223.41 568.89 229.33 568.89 240C566.22 245.93 563.26 248.89 560 248.89Z" id="a1DY7kYuW"></path></defs><g><g><g><use xlink:href="#a1DY7kYuW" opacity="1" fill="#3cb371" fill-opacity="1"></use><g><use xlink:href="#a1DY7kYuW" opacity="1" fill-opacity="0" stroke="#000000" stroke-width="1" stroke-opacity="0"></use></g></g></g></g></svg>