<?xml version="1.0" encoding="UTF-8" standalone="no"?>
<!DOCTYPE svg PUBLIC "-//W3C//DTD SVG 1.1//EN" "http://www.w3.org/Graphics/SVG/1.1/DTD/svg11.dtd">
<svg version="1.1" xmlns="http://www.w3.org/2000/svg" xmlns:xlink="http://www.w3.org/1999/xlink" preserveAspectRatio="xMidYMid meet" viewBox="0 0 640 640" width="640" height="640"><defs><path d="M230 320C230 242.68 230 199.72 230 191.13C230 141.63 269.63 100.5 319.13 100C369.13 99.5 410 140.13 410 190C410 192 410 208 410 210C410 226.63 423.38 240 440 240C444 240 476 240 480 240C496.63 240 510 226.63 510 210C510 208 510 192 510 190C510 85 424.38 -0.37 319.38 0C214.38 0.38 130 86.88 130 191.88C130 200.42 130 243.12 130 320C112 320 102 320 100 320C66.88 320 40 346.88 40 380C40 400 40 560 40 580C40 613.13 66.88 640 100 640C144 640 496 640 540 640C573.13 640 600 613.13 600 580C600 560 600 400 600 380C600 346.88 573.13 320 540 320C498.67 320 395.33 320 230 320Z" id="e1LiwPnKfM"></path></defs><g><g><g><use xlink:href="#e1LiwPnKfM" opacity="1" fill="#3cb371" fill-opacity="1"></use><g><use xlink:href="#e1LiwPnKfM" opacity="1" fill-opacity="0" stroke="#000000" stroke-width="1" stroke-opacity="0"></use></g></g></g></g></svg>