<?xml version="1.0" encoding="UTF-8" standalone="no"?>
<!DOCTYPE svg PUBLIC "-//W3C//DTD SVG 1.1//EN" "http://www.w3.org/Graphics/SVG/1.1/DTD/svg11.dtd">
<svg version="1.1" xmlns="http://www.w3.org/2000/svg" xmlns:xlink="http://www.w3.org/1999/xlink" preserveAspectRatio="xMidYMid meet" viewBox="0 0 640 640" width="640" height="640"><defs><path d="M560 272C560 233.6 560 212.27 560 208C560 199.2 552.8 192 544 192C540.8 192 515.2 192 512 192C503.2 192 496 199.2 496 208C496 212.27 496 233.6 496 272C457.6 272 436.27 272 432 272C423.2 272 416 279.2 416 288C416 291.2 416 316.8 416 320C416 328.8 423.2 336 432 336C436.27 336 457.6 336 496 336C496 374.4 496 395.73 496 400C496 408.8 503.2 416 512 416C515.2 416 540.8 416 544 416C552.8 416 560 408.8 560 400C560 395.73 560 374.4 560 336C598.4 336 619.73 336 624 336C632.8 336 640 328.8 640 320C640 316.8 640 291.2 640 288C640 279.2 632.8 272 624 272C615.47 272 594.13 272 560 272ZM352 192C352 121.3 294.7 64 224 64C153.3 64 96 121.3 96 192C96 262.7 153.3 320 224 320C294.7 320 352 262.7 352 192ZM296.9 352C274.7 362.2 250 368 224 368C198 368 173.4 362.2 151.1 352C149.43 352 136.07 352 134.4 352C60.2 352 0 412.2 0 486.4C0 490.56 0 523.84 0 528C0 554.5 21.5 576 48 576C83.2 576 364.8 576 400 576C426.5 576 448 554.5 448 528C448 523.84 448 490.56 448 486.4C448 412.2 387.8 352 313.6 352C310.26 352 298.57 352 296.9 352Z" id="cp5Mr6bKj"></path></defs><g><g><g><use xlink:href="#cp5Mr6bKj" opacity="1" fill="#3cb371" fill-opacity="1"></use><g><use xlink:href="#cp5Mr6bKj" opacity="1" fill-opacity="0" stroke="#000000" stroke-width="1" stroke-opacity="0"></use></g></g></g></g></svg>